<?xml version="1.0" standalone="no"?>
<!DOCTYPE svg PUBLIC "-//W3C//DTD SVG 1.1//EN" "http://www.w3.org/Graphics/SVG/1.1/DTD/svg11.dtd">
<svg xmlns="http://www.w3.org/2000/svg" xmlns:xlink="http://www.w3.org/1999/xlink" width="126" zoomAndPan="magnify" viewBox="0 0 126 34.499999" height="34.5" preserveAspectRatio="xMidYMid meet" version="1.0"><defs><g/><clipPath id="fe5bf50f35"><path d="M 0.898438 19 L 9 19 L 9 24 L 0.898438 24 Z M 0.898438 19 " clip-rule="nonzero"/></clipPath><clipPath id="d280689cfd"><path d="M 12.742188 24.144531 L 16.984375 24.144531 L 16.984375 31.789062 L 12.742188 31.789062 Z M 12.742188 24.144531 " clip-rule="nonzero"/></clipPath><clipPath id="32ecb19f5f"><path d="M 22.386719 8.277344 L 29.695312 8.277344 L 29.695312 12.722656 L 22.386719 12.722656 Z M 22.386719 8.277344 " clip-rule="nonzero"/></clipPath></defs><path fill="#5acc0d" d="M 16.238281 0 C 16.21875 0 16.203125 0.0078125 16.191406 0.0195312 C 14.949219 1.347656 13.789062 2.636719 13.65625 3.929688 C 13.523438 5.222656 14.417969 6.539062 15.386719 7.898438 C 15.398438 7.914062 15.417969 7.925781 15.4375 7.925781 C 15.441406 7.925781 15.449219 7.925781 15.453125 7.921875 C 15.464844 7.917969 15.472656 7.914062 15.480469 7.90625 C 16.628906 6.753906 17.703125 5.628906 17.832031 4.335938 C 17.964844 3.042969 17.164062 1.5625 16.292969 0.03125 C 16.28125 0.0117188 16.261719 0 16.238281 0 " fill-opacity="1" fill-rule="nonzero"/><path fill="#5acc0d" d="M 1.90625 7.191406 C 1.886719 7.191406 1.867188 7.203125 1.855469 7.21875 C 1.84375 7.234375 1.84375 7.253906 1.847656 7.273438 C 2.375 9.011719 2.914062 10.664062 3.96875 11.421875 C 4.613281 11.890625 5.460938 12.027344 6.398438 12.027344 C 6.988281 12.027344 7.621094 11.972656 8.265625 11.910156 C 8.285156 11.910156 8.300781 11.902344 8.3125 11.886719 C 8.324219 11.871094 8.328125 11.851562 8.324219 11.835938 C 7.898438 10.261719 7.460938 8.769531 6.40625 8.011719 C 5.355469 7.25 3.667969 7.203125 1.90625 7.191406 " fill-opacity="1" fill-rule="nonzero"/><g clip-path="url(#fe5bf50f35)"><path fill="#5acc0d" d="M 5.25 19.476562 C 4.761719 19.476562 4.296875 19.550781 3.875 19.742188 C 2.6875 20.273438 1.808594 21.710938 0.917969 23.230469 C 0.90625 23.25 0.90625 23.273438 0.917969 23.292969 C 0.925781 23.308594 0.945312 23.320312 0.964844 23.324219 C 2.101562 23.585938 3.203125 23.828125 4.160156 23.828125 C 4.691406 23.828125 5.183594 23.753906 5.613281 23.5625 C 6.792969 23.03125 7.484375 21.609375 8.179688 20.097656 L 8.175781 20.097656 C 8.183594 20.085938 8.191406 20.074219 8.191406 20.0625 C 8.195312 20.03125 8.175781 20.003906 8.144531 19.996094 C 7.128906 19.722656 6.140625 19.476562 5.25 19.476562 " fill-opacity="1" fill-rule="nonzero"/></g><g clip-path="url(#d280689cfd)"><path fill="#5acc0d" d="M 15.167969 24.210938 C 15.152344 24.210938 15.136719 24.21875 15.125 24.230469 C 13.972656 25.382812 12.902344 26.507812 12.769531 27.800781 C 12.636719 29.09375 13.441406 30.574219 14.3125 32.105469 C 14.324219 32.125 14.34375 32.136719 14.367188 32.136719 C 14.371094 32.136719 14.375 32.136719 14.382812 32.136719 C 14.394531 32.132812 14.402344 32.125 14.410156 32.117188 C 15.652344 30.789062 16.8125 29.5 16.945312 28.207031 C 17.078125 26.917969 16.1875 25.601562 15.21875 24.238281 C 15.207031 24.222656 15.1875 24.210938 15.167969 24.210938 " fill-opacity="1" fill-rule="nonzero"/></g><path fill="#5acc0d" d="M 24.203125 20.109375 C 23.613281 20.109375 22.980469 20.164062 22.332031 20.226562 C 22.300781 20.230469 22.277344 20.257812 22.277344 20.289062 C 22.277344 20.300781 22.28125 20.3125 22.285156 20.320312 C 22.707031 21.886719 23.148438 23.367188 24.195312 24.128906 C 25.25 24.890625 26.933594 24.933594 28.695312 24.945312 C 28.710938 24.945312 28.730469 24.9375 28.738281 24.925781 C 28.75 24.914062 28.757812 24.898438 28.757812 24.882812 C 28.757812 24.875 28.757812 24.871094 28.753906 24.863281 C 28.226562 23.125 27.6875 21.476562 26.636719 20.714844 C 25.988281 20.246094 25.140625 20.109375 24.203125 20.109375 " fill-opacity="1" fill-rule="nonzero"/><g clip-path="url(#32ecb19f5f)"><path fill="#5acc0d" d="M 26.445312 8.308594 C 25.910156 8.308594 25.417969 8.382812 24.992188 8.574219 C 23.808594 9.105469 23.113281 10.535156 22.417969 12.058594 C 22.410156 12.074219 22.410156 12.097656 22.421875 12.117188 C 22.433594 12.132812 22.449219 12.140625 22.46875 12.144531 L 22.464844 12.144531 C 23.480469 12.414062 24.464844 12.660156 25.351562 12.660156 C 25.84375 12.660156 26.304688 12.585938 26.726562 12.394531 C 27.910156 11.867188 28.789062 10.433594 29.675781 8.921875 C 29.6875 8.910156 29.695312 8.898438 29.695312 8.882812 C 29.699219 8.851562 29.675781 8.824219 29.648438 8.816406 C 28.507812 8.550781 27.402344 8.308594 26.445312 8.308594 " fill-opacity="1" fill-rule="nonzero"/></g><path fill="#0097b2" d="M 8.992188 4.910156 C 8.980469 4.910156 8.96875 4.917969 8.964844 4.929688 C 8.613281 6.941406 8.3125 8.878906 9.195312 10.464844 C 10.082031 12.0625 12.167969 13.328125 14.347656 14.609375 C 14.351562 14.609375 14.355469 14.613281 14.363281 14.613281 C 14.367188 14.613281 14.371094 14.609375 14.375 14.609375 C 14.382812 14.605469 14.386719 14.597656 14.386719 14.585938 C 14.570312 12.117188 14.710938 9.738281 13.828125 8.148438 C 12.945312 6.558594 11.023438 5.734375 9 4.910156 C 8.996094 4.910156 8.996094 4.910156 8.992188 4.910156 " fill-opacity="1" fill-rule="nonzero"/><path fill="#0097b2" d="M 7.640625 13.386719 C 5.847656 13.386719 4.191406 14.625 2.488281 15.949219 C 2.480469 15.953125 2.476562 15.964844 2.480469 15.972656 C 2.480469 15.980469 2.488281 15.988281 2.492188 15.988281 C 4.054688 17.300781 5.582031 18.527344 7.394531 18.554688 C 7.417969 18.558594 7.441406 18.558594 7.464844 18.558594 C 9.273438 18.558594 11.386719 17.398438 13.554688 16.167969 C 13.5625 16.164062 13.570312 16.15625 13.574219 16.148438 C 13.574219 16.140625 13.570312 16.128906 13.5625 16.121094 C 11.515625 14.726562 9.527344 13.417969 7.707031 13.386719 C 7.683594 13.386719 7.664062 13.386719 7.640625 13.386719 " fill-opacity="1" fill-rule="nonzero"/><path fill="#0097b2" d="M 14.488281 17.601562 C 14.484375 17.601562 14.480469 17.601562 14.476562 17.601562 C 12.246094 18.675781 10.117188 19.746094 9.179688 21.304688 C 8.246094 22.867188 8.492188 24.941406 8.789062 27.105469 C 8.789062 27.117188 8.800781 27.125 8.8125 27.125 C 8.816406 27.125 8.820312 27.125 8.820312 27.125 C 10.742188 26.425781 12.570312 25.714844 13.503906 24.160156 C 14.441406 22.59375 14.496094 20.15625 14.511719 17.625 C 14.511719 17.617188 14.511719 17.613281 14.507812 17.605469 C 14.5 17.601562 14.496094 17.601562 14.488281 17.601562 " fill-opacity="1" fill-rule="nonzero"/><path fill="#0097b2" d="M 16.242188 17.527344 C 16.230469 17.527344 16.21875 17.535156 16.21875 17.550781 C 16.03125 20.019531 15.894531 22.398438 16.777344 23.988281 C 17.660156 25.578125 19.582031 26.402344 21.605469 27.226562 C 21.605469 27.226562 21.609375 27.230469 21.613281 27.230469 C 21.617188 27.230469 21.621094 27.226562 21.625 27.222656 C 21.632812 27.21875 21.636719 27.210938 21.636719 27.203125 C 21.992188 25.191406 22.289062 23.257812 21.410156 21.671875 C 20.523438 20.074219 18.4375 18.808594 16.253906 17.53125 C 16.25 17.527344 16.246094 17.527344 16.242188 17.527344 " fill-opacity="1" fill-rule="nonzero"/><path fill="#0097b2" d="M 23.136719 13.582031 C 21.328125 13.582031 19.214844 14.742188 17.042969 15.972656 C 17.03125 15.980469 17.027344 15.992188 17.03125 16 C 17.03125 16.011719 17.039062 16.015625 17.046875 16.019531 C 19.089844 17.414062 21.078125 18.71875 22.898438 18.75 C 22.917969 18.75 22.941406 18.75 22.960938 18.75 C 24.753906 18.75 26.410156 17.515625 28.109375 16.195312 C 28.117188 16.191406 28.121094 16.1875 28.125 16.179688 C 28.128906 16.167969 28.125 16.160156 28.117188 16.152344 C 26.550781 14.839844 25.023438 13.609375 23.207031 13.582031 C 23.183594 13.582031 23.160156 13.582031 23.136719 13.582031 " fill-opacity="1" fill-rule="nonzero"/><path fill="#0097b2" d="M 21.789062 5.011719 C 21.785156 5.011719 21.785156 5.011719 21.78125 5.011719 C 19.859375 5.710938 18.035156 6.421875 17.101562 7.976562 C 16.160156 9.542969 16.109375 11.984375 16.089844 14.511719 C 16.089844 14.519531 16.09375 14.527344 16.097656 14.53125 C 16.101562 14.535156 16.109375 14.539062 16.113281 14.539062 C 16.117188 14.539062 16.121094 14.535156 16.125 14.535156 C 18.355469 13.460938 20.484375 12.390625 21.421875 10.832031 C 22.359375 9.273438 22.113281 7.199219 21.816406 5.035156 L 21.8125 5.035156 C 21.8125 5.023438 21.804688 5.011719 21.789062 5.011719 " fill-opacity="1" fill-rule="nonzero"/><g fill="#000000" fill-opacity="1"><g transform="translate(37.189763, 24.306583)"><g><path d="M 0.375 0 L 5.09375 -12.984375 L 8.296875 -12.984375 L 13.015625 0 L 10.078125 0 L 6.671875 -9.84375 L 3.28125 0 Z M 2.421875 -2.84375 L 3.171875 -4.984375 L 9.984375 -4.984375 L 10.703125 -2.84375 Z M 2.421875 -2.84375 "/></g></g></g><g fill="#000000" fill-opacity="1"><g transform="translate(51.89275, 24.306583)"><g><path d="M 0.375 0 L 5.09375 -12.984375 L 8.296875 -12.984375 L 13.015625 0 L 10.078125 0 L 6.671875 -9.84375 L 3.28125 0 Z M 2.421875 -2.84375 L 3.171875 -4.984375 L 9.984375 -4.984375 L 10.703125 -2.84375 Z M 2.421875 -2.84375 "/></g></g></g><g fill="#000000" fill-opacity="1"><g transform="translate(66.595737, 24.306583)"><g><path d="M 1.25 0 L 1.25 -12.984375 L 4.03125 -12.984375 L 4.03125 0 Z M 1.25 0 "/></g></g></g><g fill="#000000" fill-opacity="1"><g transform="translate(73.178268, 24.306583)"><g><path d="M 1.25 0 L 1.25 -12.984375 L 4.578125 -12.984375 L 8.359375 -5.171875 L 12.109375 -12.984375 L 15.4375 -12.984375 L 15.4375 0 L 12.65625 0 L 12.65625 -8.296875 L 9.453125 -1.8125 L 7.234375 -1.8125 L 4.03125 -8.296875 L 4.03125 0 Z M 1.25 0 "/></g></g></g><g fill="#000000" fill-opacity="1"><g transform="translate(91.162817, 24.306583)"><g><path d="M 6.375 0.21875 C 5.40625 0.21875 4.519531 0.0234375 3.71875 -0.359375 C 2.914062 -0.753906 2.28125 -1.335938 1.8125 -2.109375 C 1.351562 -2.890625 1.125 -3.875 1.125 -5.0625 L 1.125 -12.984375 L 3.90625 -12.984375 L 3.90625 -5.046875 C 3.90625 -4.460938 4 -3.96875 4.1875 -3.5625 C 4.382812 -3.15625 4.671875 -2.847656 5.046875 -2.640625 C 5.429688 -2.441406 5.890625 -2.34375 6.421875 -2.34375 C 6.960938 -2.34375 7.421875 -2.441406 7.796875 -2.640625 C 8.171875 -2.847656 8.457031 -3.15625 8.65625 -3.5625 C 8.851562 -3.96875 8.953125 -4.460938 8.953125 -5.046875 L 8.953125 -12.984375 L 11.734375 -12.984375 L 11.734375 -5.0625 C 11.734375 -3.875 11.488281 -2.890625 11 -2.109375 C 10.519531 -1.335938 9.875 -0.753906 9.0625 -0.359375 C 8.25 0.0234375 7.351562 0.21875 6.375 0.21875 Z M 6.375 0.21875 "/></g></g></g><g fill="#000000" fill-opacity="1"><g transform="translate(105.328147, 24.306583)"><g><path d="M 1.25 0 L 1.25 -12.984375 L 4.03125 -12.984375 L 9.71875 -4.453125 L 9.71875 -12.984375 L 12.5 -12.984375 L 12.5 0 L 9.71875 0 L 4.03125 -8.5 L 4.03125 0 Z M 1.25 0 "/></g></g></g></svg>